<svg width="104" height="104" fill="none" xmlns="http://www.w3.org/2000/svg"><path opacity=".35" d="M91.875 80.475c4.107 2.424 4.196 6.284.089 8.707-4.107 2.424-10.803 2.424-14.91 0l-33.93-19.657c-4.107-2.424-4.196-6.284-.089-8.707 4.107-2.424 10.803-2.424 14.91 0l33.929 19.657z" fill="#000"/><path d="M86.89 53.258c-.251.084-.419.252-.67.335-.084 0-.084.084-.168.084-.252.084-.503.168-.671.336h-.084a5.766 5.766 0 00-.671.252c-.084 0-.084 0-.168.083-.251.084-.503.168-.755.168h-.083c-.252.084-.504.084-.755.168h-.168c-.252.084-.503.084-.839.084h-.084c-.251 0-.503.084-.754.084h-2.097c-.252 0-.587 0-.839-.084H78c-.251 0-.503-.084-.755-.084h-.167c-.252-.084-.504-.084-.84-.168h-.083c-.252-.084-.503-.168-.755-.168-.084 0-.168 0-.168-.084a1668.6 1668.6 0 00-.754-.251c-.252-.084-.504-.168-.671-.336-.084 0-.084-.084-.168-.084-.252-.083-.42-.251-.671-.335L41.097 34.89c-.168-.084-.252-.168-.42-.251l-.083-.084c-.168-.084-.252-.168-.336-.168-.084 0-.084-.084-.168-.084-.083-.084-.167-.084-.251-.168l-.084-.083c-.084-.084-.168-.168-.252-.168l-.083-.084a596.94 596.94 0 01-.252-.252s0-.084-.084-.084c-.084-.083-.084-.167-.168-.251l-.083-.084c-.084-.084-.084-.168-.168-.168l-.084-.084c.084-.167 0-.251 0-.335 0 0 0-.084-.084-.084-.084-.084-.084-.252-.168-.335v-.084c-.084-.084-.084-.252-.084-.336v-.084c0-.084-.084-.251-.084-.419v-.504L38.078 67.6v.503c0 .168 0 .252.083.42v.083c0 .084.084.252.084.336v.084c.084.084.084.251.168.335v.084c0 .084.084.168.084.168l.084.084c.084.084.084.168.168.168l.084.083c.083.084.083.168.167.252 0 0 0 .084.084.084l.252.251.084.084c.083.084.167.168.251.168l.084.084c.084.084.168.084.252.168 0 0 .084.084.167.084.084.083.168.083.252.167l.084.084c.168.084.252.168.42.252L72.8 89.993c.252.084.42.252.671.336.084 0 .084.084.168.084a2.5 2.5 0 01.67.335l.756.252c.084 0 .168 0 .168.084.251.084.503.168.754.168h.084c.252.083.503.083.839.167h.168c.251 0 .503.084.754.084h.084c.252 0 .587.084.84.084h2.095c.251 0 .503 0 .755-.084h.084c.251 0 .419-.084.67-.084h.336c.252-.084.503-.084.755-.167h.084c.251-.084.503-.168.754-.168.084 0 .084 0 .168-.084.252-.084.504-.168.671-.252h.084c.252-.084.503-.167.671-.335.084 0 .084-.084.168-.084.251-.084.42-.252.67-.335 1.93-1.09 2.852-2.6 2.852-4.026l.084-36.904c.168 1.594-.838 3.104-2.767 4.194z" fill="url(#paint0_linear)"/><path d="M86.89 53.258c-.251.084-.419.252-.67.335-.084 0-.084.084-.168.084-.252.084-.503.168-.671.336h-.084a5.766 5.766 0 00-.671.252c-.084 0-.084 0-.168.083-.251.084-.503.168-.755.168h-.083c-.252.084-.504.084-.755.168h-.168c-.252.084-.503.084-.839.084h-.084c-.251 0-.503.084-.754.084h-2.097c-.252 0-.587 0-.839-.084H78c-.251 0-.503-.084-.755-.084h-.167c-.252-.084-.504-.084-.84-.168h-.083c-.252-.084-.503-.168-.755-.168-.084 0-.168 0-.168-.084a1668.6 1668.6 0 00-.754-.251c-.252-.084-.504-.168-.671-.336-.084 0-.084-.084-.168-.084-.252-.083-.42-.251-.671-.335L41.097 34.89c-.168-.084-.252-.168-.42-.251l-.083-.084c-.168-.084-.252-.168-.336-.168-.084 0-.084-.084-.168-.084-.083-.084-.167-.084-.251-.168l-.084-.083c-.084-.084-.168-.168-.252-.168l-.083-.084a596.94 596.94 0 01-.252-.252s0-.084-.084-.084c-.084-.083-.084-.167-.168-.251l-.083-.084c-.084-.084-.084-.168-.168-.168l-.084-.084c.084-.167 0-.251 0-.335 0 0 0-.084-.084-.084-.084-.084-.084-.252-.168-.335v-.084c-.084-.084-.084-.252-.084-.336v-.084c0-.084-.084-.251-.084-.419v-.504L38.078 67.6v.503c0 .168 0 .252.083.42v.083c0 .084.084.252.084.336v.084c.084.084.084.251.168.335v.084c0 .084.084.168.084.168l.084.084c.084.084.084.168.168.168l.084.083c.083.084.083.168.167.252 0 0 0 .084.084.084l.252.251.084.084c.083.084.167.168.251.168l.084.084c.084.084.168.084.252.168 0 0 .084.084.167.084.084.083.168.083.252.167l.084.084c.168.084.252.168.42.252L72.8 89.993c.252.084.42.252.671.336.084 0 .084.084.168.084a2.5 2.5 0 01.67.335l.756.252c.084 0 .168 0 .168.084.251.084.503.168.754.168h.084c.252.083.503.083.839.167h.168c.251 0 .503.084.754.084h.084c.252 0 .587.084.84.084h2.095c.251 0 .503 0 .755-.084h.084c.251 0 .419-.084.67-.084h.336c.252-.084.503-.084.755-.167h.084c.251-.084.503-.168.754-.168.084 0 .084 0 .168-.084.252-.084.504-.168.671-.252h.084c.252-.084.503-.167.671-.335.084 0 .084-.084.168-.084.251-.084.42-.252.67-.335 1.93-1.09 2.852-2.6 2.852-4.026l.084-36.904c.168 1.594-.838 3.104-2.767 4.194z" fill="#fff" fill-opacity=".35"/><path d="M86.89 45.123c3.859 2.264 3.942 5.87.084 8.135-3.858 2.265-10.148 2.265-14.006 0L41.097 34.89c-3.858-2.264-3.942-5.87-.084-8.135 3.858-2.265 10.148-2.265 14.007 0l31.87 18.368z" fill="#CBCFD1"/><path d="M86.89 45.123c3.859 2.264 3.942 5.87.084 8.135-3.858 2.265-10.148 2.265-14.006 0L41.097 34.89c-3.858-2.264-3.942-5.87-.084-8.135 3.858-2.265 10.148-2.265 14.007 0l31.87 18.368z" fill="url(#paint1_linear)" fill-opacity=".4"/><path opacity=".2" d="M58 32.5c-.5 1-3 2.5-5 2s-6.919-2.984-5.5-4.5c1.42-1.516 4.02-1.59 7-1 2.98.59 4 2.5 3.5 3.5zm25.753 14.343c-.5 1-3 2.5-5 2s-6.919-2.984-5.5-4.5c1.42-1.516 4.02-1.59 7-1 2.98.59 4 2.5 3.5 3.5z" fill="#000"/><path d="M81.607 36.652c0-.671 0-1.175-.084-1.678-.084-.838-.168-1.426-.168-1.51v-.083c-.084-.42-.168-1.007-.252-1.342l-.335-1.426a11.173 11.173 0 00-.42-1.594c-.167-.587-.503-1.593-1.006-2.935V26l-.084-.168c-.084-.251-.251-.503-.335-.838-.168-.336-.252-.671-.42-.923-.838-1.761-1.845-3.439-3.019-5.116-.084-.168-.251-.336-.335-.503-.084-.168-.252-.336-.336-.42-.084-.168-.168-.251-.335-.42-.336-.418-.587-.754-.923-1.173-.335-.42-.755-.839-1.09-1.175L71.29 14.09l-.084-.084a10.62 10.62 0 00-1.09-.922l-1.175-.923c-.42-.335-.922-.67-1.342-1.006-.335-.252-.838-.503-1.174-.755-.503-.252-1.174-.587-1.593-.839a10.958 10.958 0 00-1.762-.67c-.335-.085-.67-.252-1.006-.336h-.168c-.252-.084-.587-.168-.839-.168-.084 0-.167 0-.251-.084h-.252c-.922-.335-1.845-.335-2.684-.335h-.503c-.168 0-.335 0-.503.084h-.419l-.838.167c-.084.168-.168.168-.252.168-.084 0-.252.084-.335.084 0 0-.084 0-.168.084-.084 0-.084 0-.168.084-.084 0-.084 0-.168.084a2.84 2.84 0 01-.67.251c-.084 0-.084.084-.168.084s-.084.084-.168.084c0 0-.084 0-.084.084-.084.084-.168.084-.335.168l-.671.419c-.42.252-.923.67-1.342.922-.168.168-.42.42-.671.588-.336.419-.839.922-1.09 1.341-.252.336-.504.755-.755 1.09-.42.756-.755 1.594-1.007 2.35-.168.419-.252.922-.335 1.341v.252l-.252 1.258v.503c0 .168 0 .336-.084.503v.252c0 .42 0 .922-.084 1.342v10.148c.923.503 1.846 1.09 2.768 1.594.168.084.336.168.42.251h.335l.252.168.251.168.252.084.084.084c.084.084.251.084.335.167 0 0-.084 0-.084-.084.084 0 .084.084.168.084.084.084.168.084.335.168.084 0 .084.084.168.084.168.084.252.084.42.168.167 0 .251.084.335.084h.587c.084 0 .168 0 .252-.084h.084c.084 0 .251-.084.335-.168l.671-.42c.335-.167.587-.503.755-.922.168-.42.252-.923.252-1.426v-9.897c0-.838.083-1.593.251-2.264v-.168c0-.084.084-.168.084-.251.084-.168.084-.252.168-.42.251-.67.587-1.174 1.006-1.51 1.594-.587 3.774.168 5.955 1.678.168.084.336.252.503.42.084 0 .084.083.168.083.168.168.336.336.587.42l.252.251.587.587.084.084.754.755.755.839c1.09 1.342 2.349 3.019 3.355 5.032l.336.755c.084.084.084.251.167.335.084.084.084.168.168.252l.252.503c0 .084.084.168.084.252l.251.755c.671 1.929 1.174 4.025 1.258 6.29v9.896l.168.084.168.083.168.084c.251.168.587.336.838.504l.168.083.168.084c.168.084.335.168.42.252l.167.084.168.084.083.083.168.084.252.168.084.084c.084.084.251.168.335.168h.084l.503.251.168.084.168.084.167.084s-.083 0-.083-.084c.083 0 .083.084.167.084.084.084.168.084.336.168.084 0 .084.084.167.084.168.083.252.083.42.167.168 0 .252.084.335.084h.587c.084 0 .168 0 .252-.084h.084c.084 0 .252-.084.335-.167l.671-.42c.671-.42 1.007-1.258 1.007-2.348v-9.141c.084.084.084-.252.084-.503z" fill="#00C29D"/><path d="M81.607 36.652c0-.671 0-1.175-.084-1.678-.084-.838-.168-1.426-.168-1.51v-.083c-.084-.42-.168-1.007-.252-1.342l-.335-1.426a11.173 11.173 0 00-.42-1.594c-.167-.587-.503-1.593-1.006-2.935V26l-.084-.168c-.084-.251-.251-.503-.335-.838-.168-.336-.252-.671-.42-.923-.838-1.761-1.845-3.439-3.019-5.116-.084-.168-.251-.336-.335-.503-.084-.168-.252-.336-.336-.42-.084-.168-.168-.251-.335-.42-.336-.418-.587-.754-.923-1.173-.335-.42-.755-.839-1.09-1.175L71.29 14.09l-.084-.084a10.62 10.62 0 00-1.09-.922l-1.175-.923c-.42-.335-.922-.67-1.342-1.006-.335-.252-.838-.503-1.174-.755-.503-.252-1.174-.587-1.593-.839a10.958 10.958 0 00-1.762-.67c-.335-.085-.67-.252-1.006-.336h-.168c-.252-.084-.587-.168-.839-.168-.084 0-.167 0-.251-.084h-.252c-.922-.335-1.845-.335-2.684-.335h-.503c-.168 0-.335 0-.503.084h-.419l-.838.167c-.084.168-.168.168-.252.168-.084 0-.252.084-.335.084 0 0-.084 0-.168.084-.084 0-.084 0-.168.084-.084 0-.084 0-.168.084a2.84 2.84 0 01-.67.251c-.084 0-.084.084-.168.084s-.084.084-.168.084c0 0-.084 0-.084.084-.084.084-.168.084-.335.168l-.671.419c-.42.252-.923.67-1.342.922-.168.168-.42.42-.671.588-.336.419-.839.922-1.09 1.341-.252.336-.504.755-.755 1.09-.42.756-.755 1.594-1.007 2.35-.168.419-.252.922-.335 1.341v.252l-.252 1.258v.503c0 .168 0 .336-.084.503v.252c0 .42 0 .922-.084 1.342v10.148c.923.503 1.846 1.09 2.768 1.594.168.084.336.168.42.251h.335l.252.168.251.168.252.084.084.084c.084.084.251.084.335.167 0 0-.084 0-.084-.084.084 0 .084.084.168.084.084.084.168.084.335.168.084 0 .084.084.168.084.168.084.252.084.42.168.167 0 .251.084.335.084h.587c.084 0 .168 0 .252-.084h.084c.084 0 .251-.084.335-.168l.671-.42c.335-.167.587-.503.755-.922.168-.42.252-.923.252-1.426v-9.897c0-.838.083-1.593.251-2.264v-.168c0-.084.084-.168.084-.251.084-.168.084-.252.168-.42.251-.67.587-1.174 1.006-1.51 1.594-.587 3.774.168 5.955 1.678.168.084.336.252.503.42.084 0 .084.083.168.083.168.168.336.336.587.42l.252.251.587.587.084.084.754.755.755.839c1.09 1.342 2.349 3.019 3.355 5.032l.336.755c.084.084.084.251.167.335.084.084.084.168.168.252l.252.503c0 .084.084.168.084.252l.251.755c.671 1.929 1.174 4.025 1.258 6.29v9.896l.168.084.168.083.168.084c.251.168.587.336.838.504l.168.083.168.084c.168.084.335.168.42.252l.167.084.168.084.083.083.168.084.252.168.084.084c.084.084.251.168.335.168h.084l.503.251.168.084.168.084.167.084s-.083 0-.083-.084c.083 0 .083.084.167.084.084.084.168.084.336.168.084 0 .084.084.167.084.168.083.252.083.42.167.168 0 .252.084.335.084h.587c.084 0 .168 0 .252-.084h.084c.084 0 .252-.084.335-.167l.671-.42c.671-.42 1.007-1.258 1.007-2.348v-9.141c.084.084.084-.252.084-.503z" fill="url(#paint2_linear)" fill-opacity=".2"/><path opacity=".7" d="M76.49 36.736c-1.341.67-2.096-6.04-5.45-12.497-3.44-6.458-8.22-10.149-6.878-10.904 1.342-.67 8.22 1.93 11.574 8.388 3.439 6.458 2.097 14.342.755 15.013z" fill="url(#paint3_radial)"/><path opacity=".3" d="M32.878 67.432c-1.342-.755-2.433-.168-2.433 1.342v3.523c0 4.193-1.341 7.464-3.858 9.142l-3.354 2.348c-.252.168-.252.755.083 1.258.168.252.336.42.504.503.167.084.419.168.587 0l3.355-2.348c2.683-1.929 4.193-5.452 4.193-10.065v-3.522c0-.587.42-.755.839-.503.503.251.839.922.839 1.51v3.857c0 5.2-1.678 9.142-4.697 11.24l-3.271 2.264c-.252.167-.252.755.084 1.258.167.251.335.42.503.503.168.084.42.168.587 0l3.271-2.265c3.271-2.264 5.116-6.541 5.116-12.16v-3.859c.084-1.426-1.006-3.27-2.348-4.026z" fill="#00C29D"/><path opacity=".3" d="M32.961 63.658c-3.103-1.845-5.703-.335-5.703 3.271v3.523c0 3.27-1.09 5.787-2.935 7.129l-2.433 1.677c-.251.168-.251.755.084 1.258.168.252.336.42.503.503.168.084.42.168.587 0l2.433-1.677c2.18-1.51 3.355-4.361 3.355-8.052v-3.522c0-2.6 1.845-3.69 4.11-2.349 2.264 1.342 4.109 4.53 4.109 7.13v3.857c0 6.123-2.013 10.82-5.62 13.252l-2.767 1.93c-.252.167-.252.754.084 1.257.168.252.335.42.503.503.168.084.42.168.587 0l2.768-1.929c3.858-2.6 5.955-7.716 5.955-14.174v-3.858c0-3.522-2.517-7.884-5.62-9.729z" fill="#00C29D"/><path opacity=".3" d="M32.961 59.884c-4.948-2.852-8.974-.587-8.974 5.116v3.523c0 2.348-.755 4.11-2.097 5.116l-2.18 1.51c-.252.167-.252.754.084 1.257.167.252.335.42.503.504.168.084.42.167.587 0l2.18-1.51c1.594-1.09 2.517-3.27 2.517-6.039V65.84c0-4.697 3.354-6.626 7.38-4.194 4.11 2.349 7.38 8.052 7.38 12.749v3.858c0 7.045-2.264 12.496-6.457 15.264l-.755.503c-.252.168-.252.755.084 1.258.168.252.335.42.503.504.168.084.42.167.587 0l.755-.504c4.361-3.019 6.794-8.806 6.877-16.27v-3.859c-.083-5.451-4.11-12.412-8.974-15.264z" fill="#00C29D"/><path opacity=".3" d="M31.284 55.355s-.084 0-.084-.084c-2.851-1.174-5.535-1.09-7.464.335-1.93 1.426-3.02 4.11-3.02 7.465 0 .503.336 1.09.755 1.342.42.252.755.084.755-.42 0-2.935.923-5.283 2.684-6.541 1.677-1.258 4.026-1.342 6.542-.336.42.168.67-.084.67-.587-.083-.42-.419-.923-.838-1.174zM21.47 66.174c-.418-.251-.754-.084-.754.42 0 1.425-.42 2.516-1.258 3.103l-1.929 1.342c-.252.167-.252.754.084 1.258.168.251.335.42.503.503.252.084.42.168.587 0l1.93-1.342c1.09-.755 1.677-2.18 1.677-4.026-.084-.42-.42-1.006-.84-1.258zm21.892 21.387c-.336-.168-.671-.084-.755.252-.252 1.09-.671 2.097-1.09 3.103-.168.336 0 1.007.419 1.426l.251.252c.336.167.588.167.755-.168.42-1.007.839-2.097 1.09-3.271.084-.42-.167-1.007-.586-1.426.083-.084 0-.168-.084-.168zM40.594 63.91c-.252-.084-.42-.168-.587 0-.252.167-.252.755.083 1.258 2.181 3.606 3.523 7.716 3.44 11.155v3.858c0 1.425-.085 2.851-.252 4.193-.084.42.251 1.09.67 1.342l.084.084c.42.252.671.084.755-.335a38.35 38.35 0 00.252-4.446v-3.858c0-3.942-1.426-8.638-4.026-12.748-.084-.168-.252-.336-.42-.503zm-6.039-6.626c-.42-.252-.671-.084-.755.335-.084.42.252 1.09.671 1.342 1.09.755 2.097 1.762 3.02 2.852.083.084.251.168.335.252.252.167.587.167.67-.084.169-.336 0-.923-.335-1.342-1.09-1.258-2.264-2.349-3.522-3.187 0-.168 0-.168-.084-.168z" fill="#00C29D"/><path opacity=".3" d="M32.961 52.42c-.251-.168-.587-.336-.838-.504-.42-.252-.755 0-.755.503 0 .504.335 1.007.755 1.258h.083c.252.168.504.252.755.42 7.716 4.445 13.923 15.264 13.923 24.07v3.859c0 .503.335 1.09.755 1.342.419.251.755.084.755-.42V79.09c0-9.729-6.878-21.722-15.433-26.67zm-4.025-1.678c-.084 0-.168-.084-.168-.084-1.678-.42-3.187-.503-4.613-.168-.336.084-.42.587-.168 1.09.168.336.42.588.671.756a.912.912 0 00.42.083 8.992 8.992 0 014.193.168c.42.084.671-.252.503-.755-.168-.42-.503-.922-.838-1.09zm-6.71.838c-.168-.083-.42-.167-.587-.083-2.768 1.761-4.277 5.2-4.277 9.729v3.522c0 .504-.168.84-.42 1.007l-.922.67c-.252.169-.252.756.084 1.259.167.252.335.42.503.503.168.084.42.168.587 0l.922-.67c.504-.336.84-1.091.84-2.014v-3.522c0-4.11 1.341-7.213 3.857-8.807.336-.168.252-.755 0-1.258-.168-.084-.335-.252-.587-.335zm23.987 11.407c-.168-.084-.335-.168-.503-.084-.336.168-.336.671-.084 1.258a37.652 37.652 0 013.607 9.142c.083.42.419.839.754 1.007.084.084.168.084.252.084.42.083.587-.336.503-.84-.838-3.354-2.18-6.709-3.942-9.98-.251-.251-.419-.503-.587-.587zm-7.465-9.897c-.335-.167-.587-.167-.755.168-.167.42.084 1.006.504 1.426 1.677 1.593 3.27 3.523 4.697 5.535l.419.42c.251.167.503.167.587 0 .252-.252.168-.839-.168-1.342-1.593-2.265-3.27-4.278-5.116-6.039l-.168-.168z" fill="#00C29D"/><path opacity=".3" d="M32.961 48.645c-4.864-2.768-9.477-3.355-13-1.51-3.522 1.846-5.535 5.788-5.787 11.24 0 .502.336 1.09.755 1.341.42.252.755.084.755-.42.252-4.948 2.097-8.638 5.284-10.315 3.27-1.678 7.464-1.175 11.91 1.342.838.503 1.677 1.006 2.432 1.593l.084.084c.419.252.67.084.755-.336.083-.419-.252-1.09-.672-1.341-.67-.504-1.593-1.175-2.516-1.678z" fill="#00C29D"/><path opacity=".3" d="M32.962 44.955a23.962 23.962 0 00-5.033-2.265c-.419-.084-.67.168-.587.755.084.42.42.923.755 1.09.084 0 .084.084.168.084a25.324 25.324 0 014.697 2.097c5.619 3.271 10.819 8.807 14.76 15.768.169.252.336.503.588.587.168.084.42.168.503.084.336-.168.336-.671 0-1.258-2.013-3.607-4.445-6.878-7.045-9.813-2.768-3.02-5.787-5.452-8.806-7.13zm-8.136-2.852c-.084-.084-.168-.084-.252-.084-3.522-.335-6.625.587-8.974 2.684-.251.252-.168.839.084 1.342l.503.503c.252.168.42.168.587 0 2.181-1.929 5.033-2.767 8.304-2.432.419 0 .587-.335.419-.922-.084-.588-.335-.923-.671-1.09zm8.135-.923c-3.858-2.18-7.548-3.354-10.987-3.438-.42 0-.503.42-.335 1.006.167.42.419.755.67.923.084.084.252.084.336.084 3.187.084 6.71 1.174 10.316 3.27a39.507 39.507 0 015.536 3.943h.251c.336.167.671.084.755-.252.084-.42-.168-1.006-.587-1.426-1.929-1.593-3.942-3.019-5.955-4.11zm9.059 7.214c-.336-.168-.588-.168-.756.167-.167.336 0 1.007.42 1.426.755.839 1.593 1.677 2.348 2.6.084.168.252.252.336.336.251.167.503.167.67-.084.168-.336.085-.923-.335-1.342-.755-.923-1.593-1.845-2.432-2.768-.084-.252-.168-.335-.252-.335z" fill="#00C29D"/><defs><linearGradient id="paint0_linear" x1="39.493" y1="61.297" x2="88.405" y2="61.297" gradientUnits="userSpaceOnUse"><stop stop-color="#C6C9CB"/><stop offset=".043" stop-color="#D5D7DA"/><stop offset=".757" stop-color="#E2E5E8"/><stop offset="1" stop-color="#B8BBBD"/></linearGradient><linearGradient id="paint1_linear" x1="63.994" y1="25.056" x2="63.994" y2="54.956" gradientUnits="userSpaceOnUse"><stop stop-color="#fff"/><stop offset="1" stop-color="#fff" stop-opacity="0"/></linearGradient><linearGradient id="paint2_linear" x1="64.204" y1="7.968" x2="64.204" y2="49.316" gradientUnits="userSpaceOnUse"><stop stop-color="#fff"/><stop offset="1" stop-color="#fff" stop-opacity="0"/></linearGradient><radialGradient id="paint3_radial" cx="0" cy="0" r="1" gradientUnits="userSpaceOnUse" gradientTransform="rotate(62.102 16.785 72.417) scale(11.0928 2.52025)"><stop stop-color="#fff"/><stop offset="1" stop-color="#fff" stop-opacity="0"/></radialGradient></defs></svg>