<svg width="104" height="104" fill="none" xmlns="http://www.w3.org/2000/svg"><path opacity=".25" d="M92.676 72.236c-5.485 4.216-15.83 5.96-23.106 3.897-7.277-2.064-8.73-7.154-3.246-11.37 5.485-4.215 15.83-5.96 23.106-3.896 7.277 2.064 8.73 7.154 3.246 11.37z" fill="#000"/><path d="M63.742 15.768c13.755 7.967 24.91 27.258 24.826 43.026-.084 15.851-11.239 22.225-24.994 14.258-13.755-7.968-24.91-27.258-24.825-43.026 0-15.768 11.238-22.226 24.993-14.258z" fill="#E2E5E8"/><path d="M63.742 15.768c13.755 7.967 24.91 27.258 24.826 43.026-.084 15.851-11.239 22.225-24.994 14.258-13.755-7.968-24.91-27.258-24.825-43.026 0-15.768 11.238-22.226 24.993-14.258z" fill="url(#paint0_linear)" fill-opacity=".3"/><g opacity=".3"><path d="M36.484 33.213c13.755 7.968 24.91 27.174 24.826 43.026-.084 15.851-11.24 22.225-24.994 14.258-13.755-7.968-24.91-27.258-24.826-43.026 0-15.852 11.155-22.226 24.994-14.258z" fill="#00C29D"/><path d="M36.484 33.213c13.755 7.968 24.91 27.174 24.826 43.026-.084 15.851-11.24 22.225-24.994 14.258-13.755-7.968-24.91-27.258-24.826-43.026 0-15.852 11.155-22.226 24.994-14.258z" fill="url(#paint1_linear)" fill-opacity=".4"/></g><path d="M92.51 54.516v-.503c-.084-.671-.084-1.342-.168-2.013v-.084c-.084-.67-.168-1.342-.336-2.013 0-.167-.084-.335-.084-.503-.167-.671-.251-1.342-.419-2.097 0-.084 0-.167-.084-.251-.167-.671-.335-1.258-.503-1.93-.084-.167-.084-.335-.168-.503a20.23 20.23 0 00-.67-2.096c0-.084-.085-.168-.085-.252-.251-.587-.419-1.258-.67-1.845-.084-.168-.084-.336-.168-.503-.252-.671-.587-1.342-.839-2.013v-.084c0-.084-.084-.168-.084-.252-.335-.67-.587-1.342-.922-2.013-.084-.084-.084-.251-.168-.335-.336-.671-.755-1.426-1.09-2.097-.084-.168-.168-.252-.252-.42-.42-.67-.839-1.425-1.258-2.096-.42-.671-.839-1.342-1.342-2.013-.084-.168-.168-.252-.252-.42-.419-.67-.922-1.257-1.342-1.928-.084-.084-.167-.252-.251-.336-.42-.587-.923-1.174-1.342-1.761-.084-.084-.168-.168-.168-.252l-1.51-1.761-.335-.335c-.503-.588-1.09-1.175-1.594-1.678l-.084-.084c-.587-.587-1.174-1.09-1.76-1.677l-.252-.252c-.588-.503-1.175-1.006-1.846-1.51-.083-.083-.251-.167-.335-.251-.587-.503-1.258-.923-1.845-1.342-.084-.084-.168-.168-.336-.168l-2.012-1.258c-.084-.084-.252-.168-.336-.168-.084-.084-.168-.084-.252-.084-.503-.251-1.09-.587-1.593-.838-.084-.084-.168-.084-.252-.168a32.732 32.732 0 01-1.677-.755c-.168-.084-.252-.084-.42-.168-.503-.167-1.09-.419-1.593-.503h-.084c-.587-.168-1.09-.251-1.677-.42-.084 0-.252-.083-.336-.083-.503-.084-1.09-.168-1.593-.252h-.168c-.503 0-.923-.083-1.426-.083h-.336c-.503 0-1.006.083-1.425.083h-.252l-1.258.252h-.252a8.266 8.266 0 00-1.342.42c-.083 0-.167.083-.251.083-.42.168-.839.42-1.258.671l-3.942 2.349c.42-.252.839-.42 1.258-.671.084 0 .168-.084.252-.084.419-.168.838-.336 1.342-.42.083 0 .167 0 .251-.083l1.258-.252h.252c.503-.084.922-.084 1.426-.084h.335c.503 0 .923 0 1.426.084h.168c.503.084 1.006.084 1.593.252.084 0 .252.083.336.083.503.084 1.09.252 1.677.42h.084c.503.168 1.09.335 1.593.503.168.084.252.084.42.168.587.251 1.174.42 1.677.755.084.083.168.083.252.167.503.252 1.006.504 1.593.839.168.084.336.168.587.335l2.013 1.259c.084.083.168.167.336.167.67.42 1.258.923 1.845 1.342.084.084.252.168.336.252.587.503 1.258 1.006 1.845 1.51l.251.251c.587.503 1.174 1.09 1.762 1.678l.167.167c.504.503 1.09 1.09 1.594 1.678l.335.335 1.51 1.761c.084.084.168.168.168.252.42.587.922 1.174 1.342 1.761.084.084.168.252.251.336.504.587.923 1.258 1.342 1.929.084.168.168.252.252.42.42.67.922 1.341 1.342 2.012.42.671.838 1.426 1.258 2.097.084.168.168.252.252.42.419.67.754 1.425 1.09 2.096.084.084.084.252.168.336.335.67.67 1.342.922 2.013.084.083.084.167.168.335.335.67.587 1.342.839 2.013.084.168.084.335.167.503.252.587.504 1.258.671 1.845 0 .084.084.168.084.252.252.67.42 1.426.671 2.097.084.167.084.335.168.503.168.67.335 1.258.503 1.929 0 .084 0 .168.084.252.168.67.335 1.425.42 2.096 0 .168.083.336.083.504.084.67.252 1.341.336 2.012v.084c.084.671.167 1.342.167 2.013v.503c0 .671.084 1.342.084 2.013 0 7.884-2.767 13.42-7.297 16.02l3.942-2.349c4.446-2.6 7.213-8.135 7.297-16.02a9.515 9.515 0 01-.251-2.096z" fill="#BBBEC0"/><path d="M92.51 54.516v-.503c-.084-.671-.084-1.342-.168-2.013v-.084c-.084-.67-.168-1.342-.336-2.013 0-.167-.084-.335-.084-.503-.167-.671-.251-1.342-.419-2.097 0-.084 0-.167-.084-.251-.167-.671-.335-1.258-.503-1.93-.084-.167-.084-.335-.168-.503a20.23 20.23 0 00-.67-2.096c0-.084-.085-.168-.085-.252-.251-.587-.419-1.258-.67-1.845-.084-.168-.084-.336-.168-.503-.252-.671-.587-1.342-.839-2.013v-.084c0-.084-.084-.168-.084-.252-.335-.67-.587-1.342-.922-2.013-.084-.084-.084-.251-.168-.335-.336-.671-.755-1.426-1.09-2.097-.084-.168-.168-.252-.252-.42-.42-.67-.839-1.425-1.258-2.096-.42-.671-.839-1.342-1.342-2.013-.084-.168-.168-.252-.252-.42-.419-.67-.922-1.257-1.342-1.928-.084-.084-.167-.252-.251-.336-.42-.587-.923-1.174-1.342-1.761-.084-.084-.168-.168-.168-.252l-1.51-1.761-.335-.335c-.503-.588-1.09-1.175-1.594-1.678l-.084-.084c-.587-.587-1.174-1.09-1.76-1.677l-.252-.252c-.588-.503-1.175-1.006-1.846-1.51-.083-.083-.251-.167-.335-.251-.587-.503-1.258-.923-1.845-1.342-.084-.084-.168-.168-.336-.168l-2.012-1.258c-.084-.084-.252-.168-.336-.168-.084-.084-.168-.084-.252-.084-.503-.251-1.09-.587-1.593-.838-.084-.084-.168-.084-.252-.168a32.732 32.732 0 01-1.677-.755c-.168-.084-.252-.084-.42-.168-.503-.167-1.09-.419-1.593-.503h-.084c-.587-.168-1.09-.251-1.677-.42-.084 0-.252-.083-.336-.083-.503-.084-1.09-.168-1.593-.252h-.168c-.503 0-.923-.083-1.426-.083h-.336c-.503 0-1.006.083-1.425.083h-.252l-1.258.252h-.252a8.266 8.266 0 00-1.342.42c-.083 0-.167.083-.251.083-.42.168-.839.42-1.258.671l-3.942 2.349c.42-.252.839-.42 1.258-.671.084 0 .168-.084.252-.084.419-.168.838-.336 1.342-.42.083 0 .167 0 .251-.083l1.258-.252h.252c.503-.084.922-.084 1.426-.084h.335c.503 0 .923 0 1.426.084h.168c.503.084 1.006.084 1.593.252.084 0 .252.083.336.083.503.084 1.09.252 1.677.42h.084c.503.168 1.09.335 1.593.503.168.084.252.084.42.168.587.251 1.174.42 1.677.755.084.083.168.083.252.167.503.252 1.006.504 1.593.839.168.084.336.168.587.335l2.013 1.259c.084.083.168.167.336.167.67.42 1.258.923 1.845 1.342.084.084.252.168.336.252.587.503 1.258 1.006 1.845 1.51l.251.251c.587.503 1.174 1.09 1.762 1.678l.167.167c.504.503 1.09 1.09 1.594 1.678l.335.335 1.51 1.761c.084.084.168.168.168.252.42.587.922 1.174 1.342 1.761.084.084.168.252.251.336.504.587.923 1.258 1.342 1.929.084.168.168.252.252.42.42.67.922 1.341 1.342 2.012.42.671.838 1.426 1.258 2.097.084.168.168.252.252.42.419.67.754 1.425 1.09 2.096.084.084.084.252.168.336.335.67.67 1.342.922 2.013.084.083.084.167.168.335.335.67.587 1.342.839 2.013.084.168.084.335.167.503.252.587.504 1.258.671 1.845 0 .084.084.168.084.252.252.67.42 1.426.671 2.097.084.167.084.335.168.503.168.67.335 1.258.503 1.929 0 .084 0 .168.084.252.168.67.335 1.425.42 2.096 0 .168.083.336.083.504.084.67.252 1.341.336 2.012v.084c.084.671.167 1.342.167 2.013v.503c0 .671.084 1.342.084 2.013 0 7.884-2.767 13.42-7.297 16.02l3.942-2.349c4.446-2.6 7.213-8.135 7.297-16.02a9.515 9.515 0 01-.251-2.096z" fill="url(#paint2_linear)" fill-opacity=".5"/><path d="M78.839 56.529l-1.09 1.006 2.6 5.536 2.096 1.174-3.606-7.716z" fill="#00C29D"/><path d="M78.839 56.529l-1.09 1.006 2.6 5.536 2.096 1.174-3.606-7.716z" fill="url(#paint3_linear)" fill-opacity=".3"/><path d="M82.445 48.813l-2.013-1.174-2.684 2.516 1.09 2.18 3.607-3.522z" fill="#00C29D"/><path d="M82.445 48.813l-2.013-1.174-2.684 2.516 1.09 2.18 3.607-3.522z" fill="url(#paint4_linear)" fill-opacity=".3"/><path d="M55.942 33.465l-3.355-1.93 1.258 2.6 2.013 1.259.084-1.93z" fill="#00C29D"/><path d="M55.942 33.465l-3.355-1.93 1.258 2.6 2.013 1.259.084-1.93z" fill="url(#paint5_linear)" fill-opacity=".3"/><path d="M50.071 30.11l-5.284-3.104v1.93l4.613 2.683-.084 13.587 1.93 1.09.083-13.586-1.258-2.6z" fill="#00C29D"/><path d="M50.071 30.11l-5.284-3.104v1.93l4.613 2.683-.084 13.587 1.93 1.09.083-13.586-1.258-2.6z" fill="url(#paint6_linear)" fill-opacity=".3"/><path d="M59.716 49.232V37.574l3.607 2.097c1.09.67 2.012 1.426 2.851 2.432.839.923 1.426 2.013 1.93 3.103.419 1.175.67 2.265.67 3.44 0 1.173-.251 2.012-.67 2.683-.42.587-1.091.923-1.93.923-.67 0-1.51-.252-2.432-.671-.168-.084-.252-.168-.42-.252l-3.606-2.097zm3.774-11.406l-5.703-3.271-.084 15.432 5.703 3.271c.504.335 1.007.503 1.51.671.839.335 1.594.503 2.349.503 1.09 0 1.928-.42 2.6-1.258.587-.839.922-2.013.922-3.522 0-1.51-.252-3.02-.922-4.53a14.318 14.318 0 00-2.517-4.193c-1.174-1.174-2.432-2.265-3.858-3.103z" fill="#00C29D"/><path d="M59.716 49.232V37.574l3.607 2.097c1.09.67 2.012 1.426 2.851 2.432.839.923 1.426 2.013 1.93 3.103.419 1.175.67 2.265.67 3.44 0 1.173-.251 2.012-.67 2.683-.42.587-1.091.923-1.93.923-.67 0-1.51-.252-2.432-.671-.168-.084-.252-.168-.42-.252l-3.606-2.097zm3.774-11.406l-5.703-3.271-.084 15.432 5.703 3.271c.504.335 1.007.503 1.51.671.839.335 1.594.503 2.349.503 1.09 0 1.928-.42 2.6-1.258.587-.839.922-2.013.922-3.522 0-1.51-.252-3.02-.922-4.53a14.318 14.318 0 00-2.517-4.193c-1.174-1.174-2.432-2.265-3.858-3.103z" fill="url(#paint7_linear)" fill-opacity=".3"/><path d="M72.548 43.026l-2.096-1.174L75.4 52.419l-5.032 4.865 2.097 1.258 3.941-3.858 1.09-1.007-1.09-2.264-3.858-8.387z" fill="#00C29D"/><path d="M72.548 43.026l-2.096-1.174L75.4 52.419l-5.032 4.865 2.097 1.258 3.941-3.858 1.09-1.007-1.09-2.264-3.858-8.387z" fill="url(#paint8_linear)" fill-opacity=".3"/><path d="M31.368 54.768l-5.284-3.02L26 60.052l1.342.755.084-3.188 3.439 2.013v-1.258l-3.44-2.013v-2.516l3.943 2.265v-1.342zm7.38 4.277l-5.284-3.02v8.304l5.452 3.187v-1.342l-4.11-2.348V61.56l3.523 2.013v-1.258l-3.523-2.097v-2.096l3.942 2.264v-1.342zm7.8 4.529l-5.283-3.103v8.387l5.451 3.103v-1.258l-4.11-2.348v-2.349l3.523 2.013v-1.258l-3.522-2.013v-2.18l3.941 2.264v-1.258z" fill="#fff"/><defs><linearGradient id="paint0_linear" x1="63.658" y1="12.351" x2="63.658" y2="76.484" gradientUnits="userSpaceOnUse"><stop stop-color="#fff"/><stop offset="1" stop-color="#fff" stop-opacity="0"/></linearGradient><linearGradient id="paint1_linear" x1="36.4" y1="29.781" x2="36.4" y2="93.929" gradientUnits="userSpaceOnUse"><stop stop-color="#fff"/><stop offset="1" stop-color="#fff" stop-opacity="0"/></linearGradient><linearGradient id="paint2_linear" x1="69.487" y1="10.065" x2="69.487" y2="74.981" gradientUnits="userSpaceOnUse"><stop stop-color="#fff"/><stop offset="1" stop-color="#fff" stop-opacity="0"/></linearGradient><linearGradient id="paint3_linear" x1="63.616" y1="27.006" x2="63.616" y2="64.245" gradientUnits="userSpaceOnUse"><stop stop-color="#fff"/><stop offset="1" stop-color="#fff" stop-opacity="0"/></linearGradient><linearGradient id="paint4_linear" x1="63.616" y1="27.006" x2="63.616" y2="64.245" gradientUnits="userSpaceOnUse"><stop stop-color="#fff"/><stop offset="1" stop-color="#fff" stop-opacity="0"/></linearGradient><linearGradient id="paint5_linear" x1="63.616" y1="27.006" x2="63.616" y2="64.245" gradientUnits="userSpaceOnUse"><stop stop-color="#fff"/><stop offset="1" stop-color="#fff" stop-opacity="0"/></linearGradient><linearGradient id="paint6_linear" x1="63.616" y1="27.006" x2="63.616" y2="64.245" gradientUnits="userSpaceOnUse"><stop stop-color="#fff"/><stop offset="1" stop-color="#fff" stop-opacity="0"/></linearGradient><linearGradient id="paint7_linear" x1="63.616" y1="27.006" x2="63.616" y2="64.245" gradientUnits="userSpaceOnUse"><stop stop-color="#fff"/><stop offset="1" stop-color="#fff" stop-opacity="0"/></linearGradient><linearGradient id="paint8_linear" x1="63.616" y1="27.006" x2="63.616" y2="64.245" gradientUnits="userSpaceOnUse"><stop stop-color="#fff"/><stop offset="1" stop-color="#fff" stop-opacity="0"/></linearGradient></defs></svg>