<svg width="104" height="104" fill="none" xmlns="http://www.w3.org/2000/svg"><g opacity=".25" fill="#000"><path fill-rule="evenodd" clip-rule="evenodd" d="M27.924 85.418c.294.17.636.227.975.201.46-.034.608.026.796.103h.003a.29.29 0 00.081.02l3.091.273.081.018c.08.019.162.037.225.072l2.905 1.157c.032.013.096.054.13.062l.008.004.025.015c.021.011.044.02.067.027.04.014.029.026.029.026-.01.009.007.018.022.026.018.01.041.037.056.05.012.01.021.022.013.03a.02.02 0 00.004.03c.016.013.036.03.025.04l-.017.018c-.009.008-.002.026.005.044.008.017.015.035.006.043-.01.01-.01.026-.003.038.01.018.012.034.014.05a.115.115 0 00.029.07c.023.027.03.045.037.062a.186.186 0 00.031.054.011.011 0 010 .015.011.011 0 00.001.018c.025.017.03.035.034.055a.13.13 0 00.02.05c.006.007.026.02.034.025.036.02.043.064.049.105v.004a.129.129 0 00.015.05.033.033 0 01-.003.038.028.028 0 00-.002.036c.022.03.04.065.057.102.02.045.113.068.089.111l-.012.015c-.042.04-.021.083.003.133l.002.004c.01.023.015.054.031.073.018.02.016.05.021.076.006.029.013.055.02.082l.017.078a.17.17 0 00.038.08.15.15 0 00.037.03l.96.563c.094.056.196.096.303.12.306.09.629.164.87.219l.162.036c.225.072.467.127.71.182l.08.018c.144.054.306.09.467.127l.08.018c.226.073.306.09.468.127l1.05.238a.73.73 0 01.2.085c.004.003.023.008.028.01.034.01.074.047.107.06l.009.004c.035.015.077.059.105.085l1.391 1.268c.073.067.29.119.22.189l-.09.088c-.054.055-.145.047-.2.102l-.017.017c-.009.009-.033.009-.058.008-.024 0-.049 0-.057.009l-.018.017c-.008.009-.037.013-.066.017-.03.004-.058.008-.067.017a.061.061 0 01-.041.017.54.54 0 00-.108.015c-.019.004-.04.009-.069.013-.02.004-.067-.002-.087-.003-.045-.001-.066.005-.11.013l-.046.01a.576.576 0 01-.057.013c-.037.006-.079.013-.116.012-.038 0-.08.007-.117.013a.582.582 0 00-.057.012.582.582 0 01-.056.012c-.038.006-.079.013-.117.013a.76.76 0 00-.117.012.554.554 0 00-.056.013c-.033.008-.066.016-.116.016-.076 0-.156.022-.231.037a8.464 8.464 0 00-.066.013c-.062.012-.124.025-.182.033a.103.103 0 00-.084.13l.034.127a.22.22 0 01-.23.276l-3.053-.269a.003.003 0 00-.002.003c-.026.026-.019.071.014.09 3.228 1.815 3.193 1.85 3.09 1.954l-.817.816c-.005.005-.01.011-.017.016-.515.443-.68 1.169-1.36 1.163l-3.547-.313c.026 0 .051.001.075.003.063.004.113.007.139-.019l.017-.017c.007-.007 0-.018-.007-.03-.023-.034-.004-.081-.009-.122-.025-.212-.146-.607-.481-1.43.641 1.636.543 1.635.186 1.596l-2.7-.27c-.098 0-.242-.055-.386-.108-.208-.096-.937-.486-2.079-1.144-.544-.313-1.18-.35-1.805-.417l-3.418-.301a1.378 1.378 0 01-.494-.112 2.588 2.588 0 00-.022-.008l-2.973-1.184-.004-.001c-.349-.143-.493-.202-.954-1.813a.224.224 0 00-.094-.108l-.915-.537a1.066 1.066 0 00-.304-.12c-3.5-.856-3.869-.982-4.013-1.036-.144-.054-.27-.125-.316-.178l-1.473-1.398c-.219-.177-.247-.247 2.31-.627a.103.103 0 00.085-.129l-.108-.393a.174.174 0 00-.083-.107c-3.268-1.837-3.233-1.872-3.129-1.976l.816-.816c.104-.104.14-.14 4.215.932l.157.036a.02.02 0 00.008 0c.024-.004.022-.038-.001-.04l-.143-.013-.007-.001c-2.633-.68-3.595-.92-3.964-.963l-.016-.002.013.002-.013-.002 3.547.313c.565.06.87-.434.928-.999.015-.137.122-.128.281-.11l.94.093 2.688.237 2.7.27.16.037c.155.035.3.1.44.172.373.19 1.101.61 2.201 1.246zm-6.2-1.734l.012.003c.081.019.162.037.225.072.352.144 1.429.75 3.232 1.817l.095.054a.26.26 0 00.065.026l1.304.334v.003l-1.278-.328a1.108 1.108 0 01-.267-.107c-1.803-1.068-2.88-1.674-3.231-1.817-.053-.02-.106-.04-.156-.056zm18.208 8.82c-.011.003-.005.014.003.007.002-.002.002 0 .005 0 .047 0 .079-.009.111-.017a.438.438 0 01.09-.016.06.06 0 00.043-.018l-.252.045zm-8.772-.127c.134.05.281.056.419.017.235-.068.42-.163.546-.288.729-.73-.79-2.18-3.492-3.239a15.142 15.142 0 00-1.004-.367c-.505-.164-1.124-.277-1.5.099l-.19.19c-.018.018-.015.04-.012.062.004.032.032.072.033.105 0 .01-.008.018-.016.026s-.004.02 0 .037c.007.022.014.048-.006.069-.02.02-.008.04.004.058.01.015.017.04.027.056a.185.185 0 01.017.035c.004.009.007.018.013.028.012.02.023.051.039.069.016.018.023.05.036.07.031.049.065.095.099.141.034.047.068.094.099.143.013.02.024.049.044.06.02.012.032.04.044.06.06.097.124.194.241.291.03.026.038.068.066.096.03.03.104.091.14.113l.056.032c.031.018.059.04.086.062.041.034.112.103.159.13l.037.02c.031.019.059.04.086.063l.051.04c.017.012.036.042.05.057.015.018.026.05.043.065a.794.794 0 00.144.095l.57.32c.032.018.083.04.135.063.052.022.104.045.136.063.031.017.067.03.103.044.036.014.072.027.104.045.055.03.11.062.216.104a.34.34 0 01.102.055c.017.015.03.026.08.037.072.027.16.063.247.1l.248.098c.208.09.352.143.496.197.04.01.056.018.072.027.045.025.095.04.143.057l.073.024c.056.018.112.036.144.054a.861.861 0 00.225.072c.04.009.096.027.152.045.057.018.113.036.153.045l.242.055zm-5.981-4.444c-1.264-.164-2.28-.064-2.678.334-.194.195-.216.446-.092.73a.03.03 0 00.047.008.028.028 0 00.001-.04.842.842 0 00-.02-.019c-.034-.032-.061-.058-.036-.084.02-.02.008-.04-.003-.058-.008-.012-.015-.022-.008-.03.007-.007.004-.02 0-.036l-.005-.016c-.006-.027-.038-.072-.033-.1a.113.113 0 00-.004-.057c-.01-.035.017-.062.043-.088l.191-.191c.365-.365 1.173-.48 2.263-.383l.334.03zm-2.548 1.424l.027.035.007-.001v-.001a.906.906 0 01-.034-.033zm.036.046a3.312 3.312 0 00.205.226 1.435 1.435 0 01-.138-.152c-.014-.02-.025-.049-.046-.06l-.021-.014zm2.595 1.783zm.732.32c.151.062.303.12.456.177-.096-.048-.228-.095-.343-.136l-.113-.041z"/><path d="M38.566 93.286l2.597 1.461a.62.62 0 01.087.062.616.616 0 00.086.062l.063.036c.032.018.06.04.087.062a.608.608 0 00.086.062c.063.036.127.071.11.089 0 0-.011.01.024.024.016.006.047.03.062.038.016.009.032.018.023.026-.009.009-.007.024.003.03.038.028.023.043.008.058l-.938.938c-.008.008-.033.008-.057.008s-.022.011.001.013l3.488.308c.18.02.214-.016.231-.033l.717-.716c.053-.054-.021-.123 0-.195l.003-.006.001-.002.003-.003.035-.035c.009-.008-.003-.021-.014-.035-.012-.013-.023-.026-.015-.035.01-.009-.007-.017-.023-.026-.015-.01-.031-.018-.023-.027 0 0 .004-.003.001-.008-.022-.042-.088-.036-.119-.072a.179.179 0 00-.054-.044.62.62 0 01-.087-.062.622.622 0 00-.086-.062l-.063-.036a.776.776 0 01-.145-.096c-.017-.015-.031-.044-.051-.055-.018-.01-.04-.036-.058-.046l-2.089-1.175a1.849 1.849 0 00-.743-.23l-3.151-.278z"/></g><path opacity=".25" d="M95.491 80.209L46.12 51.928a1 1 0 01.05-1.763l1.865-.932a1 1 0 01.924.016l50.503 27.416A1 1 0 0199.5 78.4l-2.996 1.797a1 1 0 01-1.012.01z" fill="#000"/><path d="M95.026 35.394c.67.335 1.174 1.258 1.174 2.013l-.084 42.019c0 .755-.503 1.006-1.174.67l-49.652-28.6c-.67-.335-1.174-1.257-1.174-2.012l.084-42.02c0-.754.503-1.006 1.174-.67l49.652 28.6z" fill="url(#paint0_linear)"/><path d="M97.374 36.148c0-.084 0-.084-.084-.167 0-.084 0-.168-.084-.168 0-.084-.084-.084-.084-.168s-.084-.084-.084-.168c-.083-.083-.167-.251-.251-.335l-.084-.084c-.084-.084-.252-.252-.42-.335L46.717 6.039c-.084-.084-.168-.084-.336-.084h-.335c-.084 0-.084 0-.168.084l-1.258.67c.084 0 .084-.083.168-.083h.335c.084.084.168.084.252.168l49.568 28.6c.167.083.251.167.419.335l.084.084c.084.084.168.252.252.335 0 .084.083.084.083.168.084.084.084.252.168.336 0 .084 0 .084.084.167.084.168.084.336.084.504l-.084 42.019c0 .335-.168.587-.335.755l1.341-.755c.168-.084.336-.335.336-.755l.084-42.02c0-.083 0-.25-.084-.419z" fill="#66DAC4"/><path d="M94.439 35.813c.67.335 1.174 1.258 1.174 2.013v3.103L43.697 10.987V7.884c0-.755.503-1.007 1.174-.671l49.568 28.6zM45.877 10.735c.336.252.671.084.671-.419s-.335-.922-.67-1.174c-.336-.252-.672-.084-.672.42 0 .503.252 1.006.671 1.174zm2.097 1.258c.336.252.671.084.671-.419 0-.42-.335-.922-.67-1.174-.336-.252-.672 0-.672.42 0 .419.252.922.671 1.173zm2.097 1.175c.336.251.67 0 .67-.42 0-.419-.334-.922-.67-1.174-.335-.251-.671-.084-.671.42 0 .503.252 1.006.671 1.174z" fill="#00C29D"/><path d="M96.116 36.903c0-.084 0-.084-.084-.167 0-.084 0-.168-.084-.168 0-.084-.083-.084-.083-.168s-.084-.084-.084-.168c-.084-.084-.168-.251-.252-.335l-.084-.084c-.084-.084-.251-.252-.42-.336l-49.483-28.6c-.168-.083-.252-.167-.336-.167h-.335c-.084 0-.084 0-.168.084l-.67.419c.083 0 .083-.084.167-.084h.336c.083 0 .167.084.335.084l49.568 28.6c.167.084.251.168.419.335l.084.084c.084.084.168.252.252.336 0 .084.083.084.083.168.084.083.084.251.168.335 0 .084 0 .084.084.168.084.168.084.335.084.503v3.103l.67-.42v-3.102c-.083 0-.083-.252-.167-.42z" fill="#66DAC4"/><g opacity=".3"><path d="M75.065 51.664l-49.568-28.6c-.671-.335-1.174-.083-1.174.671l-.084 42.02c0 .755.503 1.593 1.174 2.013l49.568 28.6c.67.335 1.174.084 1.174-.671v-42.02c0-.754-.503-1.593-1.09-2.013z" fill="#00C29D"/><path d="M75.065 51.664l-49.568-28.6c-.671-.335-1.174-.083-1.174.671l-.084 42.02c0 .755.503 1.593 1.174 2.013l49.568 28.6c.67.335 1.174.084 1.174-.671v-42.02c0-.754-.503-1.593-1.09-2.013z" fill="url(#paint1_linear)" fill-opacity=".4"/></g><path d="M6.71 65.671l3.27-1.93c.336-.167 1.258-.167 4.194.253l-3.271 1.929c-2.935-.336-3.942-.42-4.194-.252z" fill="#00614F"/><path d="M6.71 65.671l3.27-1.93-3.27 1.93z" fill="#00614F"/><path d="M6.71 65.67l3.27-1.93c.336-.168 1.342-.084 4.194.252l-3.271 1.929c-2.852-.336-3.858-.42-4.194-.252z" fill="#00614F"/><path d="M10.903 65.923l3.271-1.846h.168l-3.27 1.93-.169-.084z" fill="#57605E"/><path d="M27.174 93.432l-.084.168c-1.09 2.684-1.51 3.523-1.845 3.69l3.271-1.929c.336-.168.755-1.006 1.845-3.69l.084-.168-3.27 1.93z" fill="#009276"/><path d="M10.065 58.29l3.27-1.929-3.27 1.93c.083 0 .083 0 0 0z" fill="#444C4A"/><path d="M30.11 82.613c-.084 0-.168.084-.168.084-.084 0-.168.084-.252.084-.083 0-.167 0-.167.084h-1.007c-.084 0-.167 0-.335-.084h-.252c-.084 0-.251-.084-.335-.084-.084 0-.168 0-.252-.084-.084-.084-.252-.084-.335-.168-.084 0-.084-.084-.168-.084-.168-.084-.336-.167-.587-.335-.168-.084-.42-.252-.587-.336-.084 0-.084-.084-.168-.167-.168-.084-.252-.168-.336-.252-.083-.084-.167-.084-.251-.168-.084-.084-.252-.167-.336-.251l-.251-.252-.252-.252-.252-.251a1.159 1.159 0 01-.251-.336c0-.084-.084-.167-.084-.251-.084-.084-.168-.252-.252-.336-.084-.084-.167-.168-.167-.251-.084-.084-.168-.252-.252-.336-.084-.084-.168-.168-.168-.252-.084-.083-.167-.167-.167-.335-.252-.335-.42-.755-.588-1.174 0-.084-.083-.084-.083-.168-.168-.42-.336-.755-.504-1.174 0-.084-.084-.168-.084-.252-.083-.168-.083-.251-.167-.42 0-.083-.084-.167-.084-.335 0-.167-.084-.335-.084-.419 0-.084 0-.168-.084-.252 0-.167-.084-.335-.084-.503v-.922c0-1.09.252-1.93.671-2.6.252-.42.587-.671.923-.923l-3.271 1.93c-1.007.586-1.594 1.76-1.594 3.522v.922c0 .168 0 .336.084.504 0 .083 0 .167.084.251 0 .168.084.336.084.42 0 .083.084.167.084.335s.084.251.168.42v.251c.167.42.251.755.503 1.174 0 .084.084.084.084.168.167.42.419.755.587 1.174v.084c.084.084.084.168.168.251.083.084.083.168.167.252.084.084.168.252.252.336.084.084.168.167.168.251.083.084.167.252.251.336l.252.251c.084.084.168.168.251.336l.252.251.252.252.251.252c.084.084.252.167.336.251.084.084.168.168.251.168.084.084.252.168.336.252l.168.167c.167.168.419.252.587.336.167.084.419.168.587.335.084 0 .084.084.168.084.083.084.251.084.335.168.084 0 .168.084.252.084.084 0 .251.084.335.084.084 0 .168 0 .252.084h1.258c.084 0 .168 0 .168-.084.083 0 .167 0 .251-.084.084 0 .168-.084.168-.084h.084c.084 0 .168-.084.251-.084l3.271-1.929c-.167 0-.251 0-.335.084z" fill="#00614F"/><path d="M30.11 82.613c-.084 0-.168.084-.168.084-.084 0-.168.084-.252.084-.083 0-.167 0-.167.084h-1.007c-.084 0-.167 0-.335-.084h-.252c-.084 0-.251-.084-.335-.084-.084 0-.168 0-.252-.084-.084-.084-.252-.084-.335-.168-.084 0-.084-.084-.168-.084-.168-.084-.336-.167-.587-.335-.168-.084-.42-.252-.587-.336-.084 0-.084-.084-.168-.167-.168-.084-.252-.168-.336-.252-.083-.084-.167-.084-.251-.168-.084-.084-.252-.167-.336-.251l-.251-.252-.252-.252-.252-.251a1.159 1.159 0 01-.251-.336c0-.084-.084-.167-.084-.251-.084-.084-.168-.252-.252-.336-.084-.084-.167-.168-.167-.251-.084-.084-.168-.252-.252-.336-.084-.084-.168-.168-.168-.252-.084-.083-.167-.167-.167-.335-.252-.335-.42-.755-.588-1.174 0-.084-.083-.084-.083-.168-.168-.42-.336-.755-.504-1.174 0-.084-.084-.168-.084-.252-.083-.168-.083-.251-.167-.42 0-.083-.084-.167-.084-.335 0-.167-.084-.335-.084-.419 0-.084 0-.168-.084-.252 0-.167-.084-.335-.084-.503v-.922c0-1.09.252-1.93.671-2.6.252-.42.587-.671.923-.923l-3.271 1.93c-1.007.586-1.594 1.76-1.594 3.522v.922c0 .168 0 .336.084.504 0 .083 0 .167.084.251 0 .168.084.336.084.42 0 .083.084.167.084.335s.084.251.168.42v.251c.167.42.251.755.503 1.174 0 .084.084.084.084.168.167.42.419.755.587 1.174v.084c.084.084.084.168.168.251.083.084.083.168.167.252.084.084.168.252.252.336.084.084.168.167.168.251.083.084.167.252.251.336l.252.251c.084.084.168.168.251.336l.252.251.252.252.251.252c.084.084.252.167.336.251.084.084.168.168.251.168.084.084.252.168.336.252l.168.167c.167.168.419.252.587.336.167.084.419.168.587.335.084 0 .084.084.168.084.083.084.251.084.335.168.084 0 .168.084.252.084.084 0 .251.084.335.084.084 0 .168 0 .252.084h1.258c.084 0 .168 0 .168-.084.083 0 .167 0 .251-.084.084 0 .168-.084.168-.084h.084c.084 0 .168-.084.251-.084l3.271-1.929c-.167 0-.251 0-.335.084z" fill="url(#paint2_linear)" fill-opacity=".5"/><path d="M20.8 59.548l-.168-.167c-2.516-2.6-3.942-4.11-4.277-4.278-.084-.084-.168-.084-.252-.084h-.168l-2.516 1.342-3.27 1.93 2.516-1.343h.167c.084 0 .168 0 .252.084.42.252 1.845 1.678 4.277 4.278l.168.167 1.51.168 3.27-1.929-1.509-.168z" fill="#009276"/><path d="M20.8 59.548l-.168-.167c-2.516-2.6-3.942-4.11-4.277-4.278-.084-.084-.168-.084-.252-.084h-.168l-2.516 1.342-3.27 1.93 2.516-1.343h.167c.084 0 .168 0 .252.084.42.252 1.845 1.678 4.277 4.278l.168.167 1.51.168 3.27-1.929-1.509-.168z" fill="url(#paint3_linear)" fill-opacity=".3"/><path d="M37.826 88.736l-.084-.252.587-1.342-3.27 1.929-.588 1.342.084.252c1.09 3.27 1.51 4.696 1.678 5.451 0 .168.083.252.083.336v.084c0 .167-.084.167-.167.251l3.27-1.929c.168-.168.252-.42-1.593-6.123z" fill="#009276"/><path d="M37.826 88.736l-.084-.252.587-1.342-3.27 1.929-.588 1.342.084.252c1.09 3.27 1.51 4.696 1.678 5.451 0 .168.083.252.083.336v.084c0 .167-.084.167-.167.251l3.27-1.929c.168-.168.252-.42-1.593-6.123z" fill="url(#paint4_linear)" fill-opacity=".4"/><path d="M42.858 82.948v-.167c0-.084-.084-.168-.084-.252 0-.084-.084-.084-.084-.168 0 0 0-.084-.084-.084-.084-.084-.084-.167-.168-.251-.083-.084-.167-.252-.251-.336l-.084-.084a1.157 1.157 0 01-.252-.335c0-.084-.084-.084-.084-.168l-.503-.503-.587-.587-.251-.252-.587-.587-.252-.251-.923-.923-.167-.168-3.271 1.93.167.167.923.923.252.251.587.587.251.252.587.587.504.503.167.168c.084.084.168.252.252.335l.084.084c.084.084.167.252.251.336.084.084.168.168.168.251 0 0 0 .084.084.084 0 .084.084.084.084.168v.084c.084.084.084.168.084.251v4.53c0 .083-.084.083-.084.167l3.27-1.929c.169-.084.169-.251.169-.335v-3.942c-.168-.252-.168-.252-.168-.336z" fill="#66DAC4"/><path d="M38.078 75.148c0-.084.083-.167.083-.167.084-.084.084-.252.168-.336 0-.084.084-.084.084-.168.084-.084.084-.251.168-.335 0-.084.084-.084.084-.168.083-.084.083-.251.167-.335 0 0 0-.084.084-.084.084-.168.084-.252.168-.336v-.084c0-.083.084-.167.084-.251V72.8c0-.084.084-.084.084-.168v-.084c0-.084 0-.084.084-.167v-.839c0-.084-.084-.168-.168-.252l-2.516-4.193c0-.084-.084-.084-.168-.168 0 0 0-.084-.084-.084-.084-.084-.168-.168-.252-.168h-1.09c-.168 0-.252 0-.503-.084h-.084c-.168 0-.335 0-.503-.083h-.084c-.252 0-.503 0-.755-.084h-.168c-.251 0-.587 0-.922-.084h-.168l-1.51-1.594-.084-.167c-.083-.336-.167-.588-.251-.923 0-.084-.084-.168-.084-.252-.084-.251-.168-.419-.168-.67 0-.084 0-.168-.084-.168a5.774 5.774 0 00-.251-.671v-.168c-.084-.168-.084-.335-.168-.503 0-.084 0-.084-.084-.168-.084-.168-.084-.335-.168-.42v-.083c-.083-.168-.083-.252-.167-.42-.084-.167-.084-.335-.168-.503v-.084c0-.084-.084-.251-.084-.335v-.084c0-.084-.084-.168-.084-.168v-.084c0-.084-.084-.167-.084-.167 0-.084-.084-.084-.084-.168 0 0 0-.084-.083-.084l-.084-.084s-.084 0-.084-.084l-3.523-2.013c-.084-.084-.168-.084-.251-.084h-.084l-3.271 1.93h.168c.083 0 .167.083.251.083l3.523 2.013s.084 0 .084.084l.084.084.083.084s.084.084.084.168.084.084.084.167v.084c0 .084.084.084.084.168v.084c0 .084.084.168.084.335v.084c.084.168.084.336.168.504.083.167.083.251.167.419v.084c.084.168.084.251.168.42 0 .083 0 .083.084.167.084.168.084.335.168.503v.168c.084.251.167.42.251.67 0 .085 0 .085.084.169.084.167.084.419.168.67 0 .084.084.168.084.252.084.252.168.587.251.923l.084.167 1.51 1.594h.168c.335 0 .67 0 .922.084h.168c.252 0 .503 0 .755.084h.084c.167 0 .419 0 .503.084h.084c.168 0 .335 0 .503.083h1.09c.084.084.168.084.252.168 0 0 0 .084.084.084l.168.168 2.516 4.193c.084.084.084.168.167.252v.839c0 .084 0 .084-.083.167v.084c0 .084 0 .084-.084.168v.084c0 .084-.084.168-.084.251v.084c-.084.084-.084.252-.168.336 0 0 0 .084-.084.084-.084.084-.084.168-.168.335 0 .084-.083.084-.083.168-.084.084-.084.252-.168.335 0 .084-.084.084-.084.168-.084.084-.084.252-.168.336 0 .084-.084.084-.084.167-.084.168-.167.42-.335.588l-.084.167.587 2.013 3.271-1.929-.587-2.013.084-.168c.084-.167.168-.419.252-.587z" fill="#99E7D8"/><path d="M38.078 75.148c0-.084.083-.167.083-.167.084-.084.084-.252.168-.336 0-.084.084-.084.084-.168.084-.084.084-.251.168-.335 0-.084.084-.084.084-.168.083-.084.083-.251.167-.335 0 0 0-.084.084-.084.084-.168.084-.252.168-.336v-.084c0-.083.084-.167.084-.251V72.8c0-.084.084-.084.084-.168v-.084c0-.084 0-.084.084-.167v-.839c0-.084-.084-.168-.168-.252l-2.516-4.193c0-.084-.084-.084-.168-.168 0 0 0-.084-.084-.084-.084-.084-.168-.168-.252-.168h-1.09c-.168 0-.252 0-.503-.084h-.084c-.168 0-.335 0-.503-.083h-.084c-.252 0-.503 0-.755-.084h-.168c-.251 0-.587 0-.922-.084h-.168l-1.51-1.594-.084-.167c-.083-.336-.167-.588-.251-.923 0-.084-.084-.168-.084-.252-.084-.251-.168-.419-.168-.67 0-.084 0-.168-.084-.168a5.774 5.774 0 00-.251-.671v-.168c-.084-.168-.084-.335-.168-.503 0-.084 0-.084-.084-.168-.084-.168-.084-.335-.168-.42v-.083c-.083-.168-.083-.252-.167-.42-.084-.167-.084-.335-.168-.503v-.084c0-.084-.084-.251-.084-.335v-.084c0-.084-.084-.168-.084-.168v-.084c0-.084-.084-.167-.084-.167 0-.084-.084-.084-.084-.168 0 0 0-.084-.083-.084l-.084-.084s-.084 0-.084-.084l-3.523-2.013c-.084-.084-.168-.084-.251-.084h-.084l-3.271 1.93h.168c.083 0 .167.083.251.083l3.523 2.013s.084 0 .084.084l.084.084.083.084s.084.084.084.168.084.084.084.167v.084c0 .084.084.084.084.168v.084c0 .084.084.168.084.335v.084c.084.168.084.336.168.504.083.167.083.251.167.419v.084c.084.168.084.251.168.42 0 .083 0 .083.084.167.084.168.084.335.168.503v.168c.084.251.167.42.251.67 0 .085 0 .085.084.169.084.167.084.419.168.67 0 .084.084.168.084.252.084.252.168.587.251.923l.084.167 1.51 1.594h.168c.335 0 .67 0 .922.084h.168c.252 0 .503 0 .755.084h.084c.167 0 .419 0 .503.084h.084c.168 0 .335 0 .503.083h1.09c.084.084.168.084.252.168 0 0 0 .084.084.084l.168.168 2.516 4.193c.084.084.084.168.167.252v.839c0 .084 0 .084-.083.167v.084c0 .084 0 .084-.084.168v.084c0 .084-.084.168-.084.251v.084c-.084.084-.084.252-.168.336 0 0 0 .084-.084.084-.084.084-.084.168-.168.335 0 .084-.083.084-.083.168-.084.084-.084.252-.168.335 0 .084-.084.084-.084.168-.084.084-.084.252-.168.336 0 .084-.084.084-.084.167-.084.168-.167.42-.335.588l-.084.167.587 2.013 3.271-1.929-.587-2.013.084-.168c.084-.167.168-.419.252-.587z" fill="url(#paint5_linear)"/><path d="M35.226 80.013c4.361 4.361 4.361 4.529 4.361 5.032v3.942c0 .503 0 .671-4.361.084h-.168l-.587 1.342.084.252c1.929 5.87 1.845 5.954 1.51 6.122l-2.517 1.342c-.083.084-.251 0-.419-.084-.335-.252-1.845-1.677-4.277-4.277l-.168-.168-1.51-.168-.084.168c-1.593 4.026-1.76 3.858-2.264 3.606l-3.523-2.013c-.42-.251-.587-.335-2.348-6.29l-.084-.251-1.51-1.594h-.167c-3.69-.252-4.11-.42-4.278-.503a1.01 1.01 0 01-.42-.42l-2.431-4.193c-.336-.503-.42-.755 1.425-4.53l.084-.167-.587-2.013-.084-.168c-4.361-4.36-4.361-4.528-4.361-5.032V66.09c0-.503 0-.67 4.361-.084h.168l.587-1.341-.084-.252c-1.929-5.871-1.845-5.955-1.51-6.123l2.517-1.342c.084-.084.251 0 .42.084.418.252 1.844 1.678 4.277 4.278l.167.167 1.51.168.084-.168c1.593-4.025 1.845-3.858 2.264-3.606l3.523 2.013c.42.252.587.335 2.348 6.29l.084.168 1.51 1.594h.168c3.69.251 4.11.419 4.277.503.168.084.335.251.42.42l2.515 4.193c.336.503.42.754-1.425 4.529l-.084.167.587 2.013v.252zm-12.161 3.942c3.103 1.845 5.703.42 5.703-3.103s-2.516-7.884-5.703-9.646c-3.104-1.845-5.704-.419-5.704 3.104 0 3.438 2.6 7.8 5.704 9.645z" fill="#00C29D"/><path d="M35.226 80.013c4.361 4.361 4.361 4.529 4.361 5.032v3.942c0 .503 0 .671-4.361.084h-.168l-.587 1.342.084.252c1.929 5.87 1.845 5.954 1.51 6.122l-2.517 1.342c-.083.084-.251 0-.419-.084-.335-.252-1.845-1.677-4.277-4.277l-.168-.168-1.51-.168-.084.168c-1.593 4.026-1.76 3.858-2.264 3.606l-3.523-2.013c-.42-.251-.587-.335-2.348-6.29l-.084-.251-1.51-1.594h-.167c-3.69-.252-4.11-.42-4.278-.503a1.01 1.01 0 01-.42-.42l-2.431-4.193c-.336-.503-.42-.755 1.425-4.53l.084-.167-.587-2.013-.084-.168c-4.361-4.36-4.361-4.528-4.361-5.032V66.09c0-.503 0-.67 4.361-.084h.168l.587-1.341-.084-.252c-1.929-5.871-1.845-5.955-1.51-6.123l2.517-1.342c.084-.084.251 0 .42.084.418.252 1.844 1.678 4.277 4.278l.167.167 1.51.168.084-.168c1.593-4.025 1.845-3.858 2.264-3.606l3.523 2.013c.42.252.587.335 2.348 6.29l.084.168 1.51 1.594h.168c3.69.251 4.11.419 4.277.503.168.084.335.251.42.42l2.515 4.193c.336.503.42.754-1.425 4.529l-.084.167.587 2.013v.252zm-12.161 3.942c3.103 1.845 5.703.42 5.703-3.103s-2.516-7.884-5.703-9.646c-3.104-1.845-5.704-.419-5.704 3.104 0 3.438 2.6 7.8 5.704 9.645z" fill="url(#paint6_linear)" fill-opacity=".4"/><defs><linearGradient id="paint0_linear" x1="44.2" y1="5.2" x2="96.2" y2="80.6" gradientUnits="userSpaceOnUse"><stop stop-color="#F0F2F4"/><stop offset="1" stop-color="#D7DBDF"/></linearGradient><linearGradient id="paint1_linear" x1="50.197" y1="22.919" x2="50.197" y2="96.514" gradientUnits="userSpaceOnUse"><stop stop-color="#fff"/><stop offset="1" stop-color="#fff" stop-opacity="0"/></linearGradient><linearGradient id="paint2_linear" x1="23.945" y1="68.858" x2="23.945" y2="84.793" gradientUnits="userSpaceOnUse"><stop stop-color="#fff"/><stop offset="1" stop-color="#fff" stop-opacity="0"/></linearGradient><linearGradient id="paint3_linear" x1="22.1" y1="61.75" x2="10.4" y2="54.6" gradientUnits="userSpaceOnUse"><stop stop-color="#fff"/><stop offset="1" stop-color="#fff" stop-opacity="0"/></linearGradient><linearGradient id="paint4_linear" x1="36.986" y1="87.142" x2="36.986" y2="96.787" gradientUnits="userSpaceOnUse"><stop stop-color="#fff"/><stop offset="1" stop-color="#fff" stop-opacity="0"/></linearGradient><linearGradient id="paint5_linear" x1="39" y1="79.95" x2="19.5" y2="55.9" gradientUnits="userSpaceOnUse"><stop stop-color="#66DAC4"/><stop offset="1" stop-color="#66DAC4" stop-opacity="0"/></linearGradient><linearGradient id="paint6_linear" x1="6.5" y1="57.2" x2="39" y2="98.8" gradientUnits="userSpaceOnUse"><stop stop-color="#fff"/><stop offset="1" stop-color="#fff" stop-opacity="0"/></linearGradient></defs></svg>