<svg width="104" height="104" fill="none" xmlns="http://www.w3.org/2000/svg"><path opacity=".7" d="M39.755 83.368c-8.22-4.697-8.22-12.413-.084-17.194 8.135-4.697 21.387-4.697 29.606 0 8.22 4.697 8.22 12.413.084 17.194-8.135 4.697-21.387 4.697-29.606 0zm29.942-17.445c-8.387-4.865-22.058-4.865-30.361 0-8.388 4.864-8.304 12.748.083 17.612 8.387 4.865 22.058 4.865 30.362 0 8.303-4.864 8.303-12.748-.084-17.612z" fill="#00C29D"/><path opacity=".6" d="M36.903 85.045c-9.813-5.62-9.813-14.845-.084-20.464 9.73-5.62 25.58-5.62 35.394 0 9.813 5.619 9.813 14.845.084 20.464-9.73 5.62-25.665 5.62-35.394 0zM72.548 64.33c-9.98-5.787-26.251-5.787-36.148 0-9.897 5.787-9.897 15.18.084 20.968 9.98 5.787 26.251 5.787 36.148 0 9.98-5.871 9.897-15.265-.084-20.968z" fill="#00C29D"/><path opacity=".5" d="M34.052 86.639c-11.407-6.542-11.49-17.194-.168-23.82 11.322-6.542 29.774-6.542 41.097 0 11.406 6.542 11.406 17.278.167 23.82-11.322 6.626-29.774 6.626-41.096 0zM75.4 62.652c-11.574-6.71-30.361-6.71-41.935 0-11.49 6.71-11.49 17.612.167 24.238 11.575 6.71 30.362 6.71 41.936 0 11.49-6.71 11.406-17.613-.168-24.238z" fill="#00C29D"/><path opacity=".4" d="M31.116 88.316c-13-7.464-13.084-19.71-.168-27.174 12.916-7.465 33.968-7.465 46.884 0 13 7.464 13 19.71.168 27.174-12.832 7.549-33.884 7.549-46.884 0zm47.135-27.342c-13.167-7.632-34.554-7.632-47.638 0-13.084 7.632-13 19.962.168 27.594 13.167 7.632 34.554 7.632 47.638 0 13.084-7.632 13.084-19.962-.168-27.594z" fill="#00C29D"/><path opacity=".3" d="M28.265 89.993c-14.594-8.386-14.678-22.057-.168-30.445 14.51-8.387 38.077-8.387 52.671 0 14.594 8.388 14.677 22.058.168 30.53-14.51 8.386-38.078 8.386-52.671-.085zm52.922-30.696c-14.761-8.555-38.748-8.555-53.425 0-14.678 8.555-14.594 22.393.167 30.948 14.762 8.555 38.749 8.555 53.426 0s14.594-22.393-.168-30.948z" fill="#00C29D"/><path opacity=".2" d="M25.413 91.671c-16.187-9.31-16.271-24.49-.168-33.8 16.02-9.31 42.271-9.31 58.458 0 16.187 9.31 16.271 24.49.168 33.8-16.103 9.31-42.271 9.31-58.458 0zm58.626-34.052c-16.355-9.477-42.942-9.477-59.213 0-16.271 9.478-16.187 24.826.168 34.304 16.354 9.477 42.942 9.477 59.212 0 16.271-9.478 16.188-24.826-.167-34.304z" fill="#00C29D"/><path opacity=".1" d="M22.561 93.348C4.781 83.116 4.697 66.426 22.31 56.194c17.613-10.233 46.464-10.233 64.161 0 17.697 10.232 17.865 26.922.168 37.154-17.53 10.233-46.38 10.233-64.078 0zm64.33-37.406c-17.949-10.4-47.136-10.4-65 0C4.11 66.342 4.194 83.2 22.142 93.6c17.949 10.4 47.136 10.4 65 0 17.781-10.4 17.697-27.258-.251-37.658z" fill="#00C29D"/><ellipse opacity=".25" rx="13.5" ry="7" transform="matrix(.8045 -.59395 .66507 .74678 80.695 69.803)" fill="#000"/><ellipse opacity=".25" rx="13.5" ry="7" transform="matrix(.82483 -.56538 .63848 .76963 42.516 49.246)" fill="#000"/><path d="M43.11 29.607c0 6.71-4.697 14.928-10.568 18.283-5.871 3.355-10.568.671-10.568-6.122 0-6.794 4.697-14.93 10.568-18.284 5.87-3.271 10.568-.587 10.568 6.122z" fill="url(#paint0_linear)"/><path d="M86.555 51.664c0 8.471-5.955 18.788-13.252 22.981-.587.336-1.342 3.187-1.342 3.187s-4.864-1.09-6.71-1.677c-3.186-1.007-5.2-4.194-5.2-9.142 0-8.471 5.956-18.787 13.252-22.98 4.446-2.6 8.387-2.35 10.736.167.755.839 4.78 4.948 4.78 4.948s-2.264.84-2.264 2.516z" fill="url(#paint1_linear)"/><path d="M90.916 55.69c0 7.633-5.368 16.858-11.91 20.716-6.625 3.775-11.91.755-11.91-6.877s5.368-16.858 11.91-20.716c6.542-3.858 11.91-.755 11.91 6.877z" fill="url(#paint2_linear)"/><path d="M84.458 50.658c0-15.264-10.735-33.8-23.903-41.432-6.626-3.774-12.58-4.194-16.858-1.678-.839.504-8.22 4.781-8.22 4.781s3.607-1.174 4.613-1.51c3.607-.419 7.8.587 12.33 3.188 13.167 7.548 23.903 26.083 23.903 41.348 0 4.697-1.007 8.555-2.852 11.406-.168.336 8.136-4.696 8.136-4.696 1.845-2.852 2.851-6.71 2.851-11.407z" fill="url(#paint3_linear)"/><path d="M39.42 37.658c-1.762-4.948-2.852-9.98-2.852-14.677 0-5.2 1.258-9.31 3.439-12.246a11.102 11.102 0 00-4.613 1.51c-4.361 2.516-6.961 7.884-6.961 15.516 0 4.697 1.006 9.73 2.851 14.678l8.136-4.78z" fill="url(#paint4_linear)"/><path d="M49.065 23.82L30.36 55.941s-3.774-3.523-5.954-5.703c-1.51-1.426-2.349-3.774-2.349-6.878 0-7.632 5.368-16.858 11.91-20.716 2.767-1.593 5.367-2.013 7.38-1.342l7.717 2.516z" fill="url(#paint5_linear)"/><path d="M54.264 32.961c0 8.471-5.954 18.787-13.251 22.98-7.297 4.194-13.252.84-13.252-7.631s5.955-18.787 13.252-22.98c7.297-4.278 13.252-.84 13.252 7.631z" fill="url(#paint6_linear)"/><path d="M44.032 32.123c.504.754.755 1.845.755 3.103 0 4.193-2.935 9.31-6.626 11.406-1.09.671-2.18.923-3.019.923 1.09 1.761 3.271 2.18 5.871.755 3.607-2.097 6.626-7.213 6.626-11.407-.084-3.02-1.51-4.78-3.607-4.78z" fill="url(#paint7_linear)"/><path d="M44.787 35.226c0-1.258-.251-2.265-.755-3.103-.922 0-1.929.251-3.019.922-3.69 2.013-6.626 7.13-6.626 11.407 0 1.258.252 2.264.755 3.103.923 0 1.93-.252 3.02-.923 3.69-2.096 6.625-7.213 6.625-11.406z" fill="url(#paint8_linear)"/><path d="M90.916 57.2c0 6.71-4.697 14.93-10.567 18.284-5.871 3.355-10.568.67-10.568-6.123s4.697-14.845 10.567-18.2c5.788-3.438 10.568-.67 10.568 6.039z" fill="url(#paint9_linear)"/><path d="M90.162 59.213c0 5.368-3.775 11.91-8.471 14.593-4.697 2.684-8.471.504-8.471-4.864s3.774-11.91 8.47-14.594c4.698-2.683 8.472-.503 8.472 4.865z" fill="url(#paint10_linear)"/><path d="M52.336 13.923c-4.53-2.6-8.723-3.607-12.33-3.188a11.87 11.87 0 00-1.677.336c-1.006.252-2.013.671-2.935 1.174-4.277 2.516-6.961 7.8-6.961 15.265 0 .084.419-.504.419-.504.168-7.045 2.768-12.077 6.793-14.425 0 0 1.93-1.175 4.446-1.426 3.522-.42 7.632.587 12.077 3.103C64.748 21.555 75.065 39 75.484 53.678c0 .335.839.67.839.67-.503-15.012-10.987-32.96-23.987-40.425z" fill="#E0E2E3"/><path d="M25.077 47.052s0-.084-.084-.084l-.083-.084s-.084-.084-.168-.084h-.084s-.084 0-.084-.084h-.084v-.084c-1.929 1.09-3.774 2.18-5.703 3.271-.755.42-1.51.923-2.348 1.342-.755.42-1.51.923-2.349 1.342l-1.51.503c-.167.084-.503.252-.67.42l-.084.084c-.084 0-.168.083-.168.083s-.084 0-.084.084l-.252.168c-.083 0-.083.084-.167.084-.084.084-.252.168-.336.252l-.084.083-.083.084c-1.09.839-2.097 1.762-2.768 2.684-.168.168-.252.42-.42.587-.083.168-.167.252-.251.42l-.168.251s0 .084-.084.084l-.084.168-.251.503v.084l-.168.503v.084c0 .084 0 .084-.084.168-.084.167-.084.251-.168.42-.251.25-.335.502-.419.838v.168l-.084.503v7.883-.168c0-.084 0-.168.084-.252 0 0 0-.084.084-.084a.18.18 0 01.168-.167c0-.084.083-.084.083-.168l.084-.084c.084-.084.168-.084.252-.168v-4.445 4.445h.084l.168.168.083.084.168.168c0 .084.084.084.084.168v.083c0 .084.084.168.084.252v-6.458c0-.252 0-.503.084-.839v-.251c0-.168.084-.42.084-.587v-.168l.251-.755c0-.084 0-.168.084-.252.084-.084.084-.251.168-.335.084-.168.084-.252.168-.42.084-.167.167-.335.335-.587.084-.167.252-.335.336-.587l.167-.168c.084-.083.084-.167.168-.251.084-.168.252-.252.42-.42l.083-.083c.168-.168.252-.336.42-.42l.167-.167c.168-.168.42-.336.588-.588.251-.167.503-.419.67-.587.084-.084.168-.084.252-.167.084-.084.252-.168.336-.252.167-.168.419-.252.587-.336.084-.083.167-.083.251-.167.084-.084.168-.084.252-.168.168-.084.252-.168.42-.252.335-.251.754-.419 1.09-.67h.083c.755-.42 1.426-.84 2.181-1.259l.084-.083.587-.336.168-.084c.922-.503 1.845-1.09 2.768-1.593l1.174-.671.838-.504c.42-.251.923-.503 1.342-.754l.084-.084.587-.336.587-.335c.084 0 .084-.084.168-.168v-.419c-.084.084-.084.084-.084 0zm-.335-.252h-.084c0-.084 0-.084.084 0-.084-.084-.084 0 0 0zm-.336-.084z" fill="#CFD3D7"/><path d="M9.73 72.548v-1.342.084-.419c0-.084 0-.168-.085-.252v-.167s0-.084-.084-.084v-.084c0-.084-.083-.168-.083-.252 0 0 0-.084-.084-.084v-.083l-.168-.252-.084-.084v-.084l-.168-.168-.167-.167-.168-.168-.084-.084-.084-.084s-.084 0-.084-.084l-.168-.084c-.083 0-.083-.083-.167-.083l-.168-.084s-.084 0-.168-.084H7.8h-.335c-.084 0-.168 0-.168-.084H5.955c-.084 0-.168.084-.168.084-.084 0-.084 0-.167.084-.084 0-.168.084-.252.084l-.168.084h-.084c-.084 0-.167.083-.251.167l-.168.168c-.084.084-.168.168-.252.168l-.167.167-.252.252-.084.168v.084c-.084.084-.168.251-.168.335 0 0 0 .084-.084.084l-.083.168v.251c0 .084-.084.168-.084.252l-.084.252c0 .167-.084.335-.084.503v.922a3.34 3.34 0 00.755 1.762l.084.084.167.167c-.167.336-.167.336-.083.42l.167.167s.084 0 .084.084c.084 0 .084.084.168.084l.168.084h.084c0 .084.083.084.083.084l.168.084h.084c1.677.67 3.523-.252 4.194-2.013 0-.084.083-.168.083-.252v-.168l.084-.251v-.168c.084-.084.084-.084.084-.168 0 .084 0 0 0 0zm.083-.922v-.168.168z" fill="#44494E"/><path d="M9.73 72.548v-1.342.084-.419c0-.084 0-.168-.085-.252v-.167s0-.084-.084-.084v-.084c0-.084-.083-.168-.083-.252 0 0 0-.084-.084-.084v-.083l-.168-.252-.084-.084v-.084l-.168-.168-.167-.167-.168-.168-.084-.084-.084-.084s-.084 0-.084-.084l-.168-.084c-.083 0-.083-.083-.167-.083l-.168-.084s-.084 0-.168-.084H7.8h-.335c-.084 0-.168 0-.168-.084H5.955c-.084 0-.168.084-.168.084-.084 0-.084 0-.167.084-.084 0-.168.084-.252.084l-.168.084h-.084c-.084 0-.167.083-.251.167l-.168.168c-.084.084-.168.168-.252.168l-.167.167-.252.252-.084.168v.084c-.084.084-.168.251-.168.335 0 0 0 .084-.084.084l-.083.168v.251c0 .084-.084.168-.084.252l-.084.252c0 .167-.084.335-.084.503v.922a3.34 3.34 0 00.755 1.762l.084.084.167.167c-.167.336-.167.336-.083.42l.167.167s.084 0 .084.084c.084 0 .084.084.168.084l.168.084h.084c0 .084.083.084.083.084l.168.084h.084c1.677.67 3.523-.252 4.194-2.013 0-.084.083-.168.083-.252v-.168l.084-.251v-.168c.084-.084.084-.084.084-.168 0 .084 0 0 0 0zm.083-.922v-.168.168z" fill="url(#paint11_linear)" fill-opacity=".3"/><defs><linearGradient id="paint6_linear" x1="29.838" y1="55.607" x2="59.517" y2="38.472" gradientUnits="userSpaceOnUse"><stop offset=".452" stop-color="#00C29D"/><stop offset=".747" stop-color="#55D6BE"/><stop offset="1" stop-color="#99E7D8"/></linearGradient><linearGradient id="paint0_linear" x1="28.876" y1="49.668" x2="28.386" y2="23.151" gradientUnits="userSpaceOnUse"><stop stop-color="#BEBED2"/><stop offset=".548" stop-color="#D3D6E0"/><stop offset="1" stop-color="#E1E5E8"/></linearGradient><linearGradient id="paint2_linear" x1="77.317" y1="75.733" x2="70.346" y2="54.842" gradientUnits="userSpaceOnUse"><stop stop-color="#F2F2F2"/><stop offset=".323" stop-color="#EEE"/><stop offset=".645" stop-color="#E2E2E2"/><stop offset=".966" stop-color="#CECECE"/><stop offset=".994" stop-color="#CCC"/></linearGradient><linearGradient id="paint3_linear" x1="39.773" y1="9.185" x2="84.377" y2="22.162" gradientUnits="userSpaceOnUse"><stop stop-color="#D5D7DA"/><stop offset=".556" stop-color="#E2E5E8"/><stop offset="1" stop-color="#B8BBBD"/></linearGradient><linearGradient id="paint4_linear" x1="34.214" y1="22.475" x2="38.594" y2="14.889" gradientUnits="userSpaceOnUse"><stop stop-color="#E2E5E8"/><stop offset="1" stop-color="#B8BABD"/></linearGradient><linearGradient id="paint5_linear" x1="23.629" y1="49.45" x2="53.834" y2="32.011" gradientUnits="userSpaceOnUse"><stop stop-color="#00C29D"/><stop offset=".614" stop-color="#01A383"/><stop offset="1" stop-color="#029577"/></linearGradient><linearGradient id="paint1_linear" x1="66.664" y1="76.399" x2="77.725" y2="40.895" gradientUnits="userSpaceOnUse"><stop stop-color="#8DE0D0"/><stop offset=".106" stop-color="#64D7C1"/><stop offset=".337" stop-color="#00C29D"/><stop offset=".425" stop-color="#06C39F"/><stop offset=".548" stop-color="#19C7A6"/><stop offset=".693" stop-color="#36CEB1"/><stop offset=".851" stop-color="#60D6C0"/><stop offset="1" stop-color="#8DE0D0"/></linearGradient><linearGradient id="paint7_linear" x1="36.213" y1="49.398" x2="50.958" y2="40.886" gradientUnits="userSpaceOnUse"><stop stop-color="#00C29D"/><stop offset=".634" stop-color="#00A082"/><stop offset="1" stop-color="#009276"/></linearGradient><linearGradient id="paint8_linear" x1="34.566" y1="46.547" x2="49.318" y2="38.03" gradientUnits="userSpaceOnUse"><stop stop-color="#00C29D"/><stop offset=".324" stop-color="#36CFB2"/><stop offset=".785" stop-color="#7DE0CD"/><stop offset="1" stop-color="#99E7D8"/></linearGradient><linearGradient id="paint9_linear" x1="76.632" y1="77.26" x2="76.142" y2="50.743" gradientUnits="userSpaceOnUse"><stop stop-color="#BEBEBE"/><stop offset=".575" stop-color="#D4D7D9"/><stop offset="1" stop-color="#E1E5E8"/></linearGradient><linearGradient id="paint10_linear" x1="74.611" y1="73.654" x2="93.506" y2="62.745" gradientUnits="userSpaceOnUse"><stop stop-color="#009276"/><stop offset=".324" stop-color="#36B098"/><stop offset=".785" stop-color="#7DD7C6"/><stop offset="1" stop-color="#99E7D8"/></linearGradient><linearGradient id="paint11_linear" x1="6.584" y1="68.271" x2="6.584" y2="75.787" gradientUnits="userSpaceOnUse"><stop stop-color="#fff"/><stop offset="1" stop-color="#fff" stop-opacity="0"/></linearGradient></defs></svg>